<svg width="279" height="184" viewBox="0 0 279 184" fill="none" xmlns="http://www.w3.org/2000/svg">
<rect width="279" height="184" fill="#E5E5E5"/>
<path d="M0 30C0 13.4315 13.4315 0 30 0H249C265.569 0 279 13.4315 279 30V154C279 170.569 265.569 184 249 184H30C13.4315 184 0 170.569 0 154V30Z" fill="#5DADE2" fill-opacity="0.88"/>
<path d="M0 30C0 13.4315 13.4315 0 30 0H249C265.569 0 279 13.4315 279 30V154C279 170.569 265.569 184 249 184H30C13.4315 184 0 170.569 0 154V30Z" fill="black" fill-opacity="0.2"/>
<path d="M0 30C0 13.4315 13.4315 0 30 0H249C265.569 0 279 13.4315 279 30V154C279 170.569 265.569 184 249 184H30C13.4315 184 0 170.569 0 154V30Z" fill="black" fill-opacity="0.2"/>
<path d="M0 30C0 13.4315 13.4315 0 30 0H249C265.569 0 279 13.4315 279 30V154C279 170.569 265.569 184 249 184H30C13.4315 184 0 170.569 0 154V30Z" fill="black" fill-opacity="0.2"/>
<path d="M0 30C0 13.4315 13.4315 0 30 0H249C265.569 0 279 13.4315 279 30V154C279 170.569 265.569 184 249 184H30C13.4315 184 0 170.569 0 154V30Z" fill="black" fill-opacity="0.2"/>
<path d="M16.4148 84.9091V79.2727C21.4754 79.2727 25.0057 78.2121 27.0057 76.0909C29.036 73.9697 30.0511 70.4242 30.0511 65.4545V50.9091C30.0511 46.7273 30.4451 43.1061 31.233 40.0454C32.0511 36.9848 33.3693 34.4545 35.1875 32.4545C37.0057 30.4545 39.4299 28.9697 42.4602 28C45.4905 27.0303 49.233 26.5454 53.6875 26.5454V35.4545C50.1723 35.4545 47.3996 36 45.3693 37.0909C43.3693 38.1818 41.9451 39.8788 41.0966 42.1818C40.2784 44.4545 39.8693 47.3636 39.8693 50.9091V69.0909C39.8693 71.4545 39.5511 73.6061 38.9148 75.5455C38.3087 77.4848 37.1723 79.1515 35.5057 80.5455C33.839 81.9394 31.4602 83.0152 28.3693 83.7727C25.3087 84.5303 21.3239 84.9091 16.4148 84.9091ZM53.6875 142.909C49.233 142.909 45.4905 142.424 42.4602 141.455C39.4299 140.485 37.0057 139 35.1875 137C33.3693 135 32.0511 132.47 31.233 129.409C30.4451 126.348 30.0511 122.727 30.0511 118.545V104C30.0511 99.0303 29.036 95.4848 27.0057 93.3636C25.0057 91.2424 21.4754 90.1818 16.4148 90.1818V84.5455C21.3239 84.5455 25.3087 84.9242 28.3693 85.6818C31.4602 86.4394 33.839 87.5151 35.5057 88.9091C37.1723 90.303 38.3087 91.9697 38.9148 93.9091C39.5511 95.8485 39.8693 98 39.8693 100.364V118.545C39.8693 122.091 40.2784 125 41.0966 127.273C41.9451 129.545 43.3693 131.227 45.3693 132.318C47.3996 133.439 50.1723 134 53.6875 134V142.909ZM16.4148 90.1818V79.2727H27.142V90.1818H16.4148ZM262.574 84.5455V90.1818C257.513 90.1818 253.968 91.2424 251.938 93.3636C249.938 95.4848 248.938 99.0303 248.938 104V118.545C248.938 122.727 248.528 126.348 247.71 129.409C246.922 132.47 245.619 135 243.801 137C241.983 139 239.559 140.485 236.528 141.455C233.498 142.424 229.756 142.909 225.301 142.909V134C228.816 134 231.574 133.439 233.574 132.318C235.604 131.227 237.028 129.545 237.847 127.273C238.695 125 239.119 122.091 239.119 118.545V100.364C239.119 98 239.422 95.8485 240.028 93.9091C240.665 91.9697 241.816 90.303 243.483 88.9091C245.15 87.5151 247.513 86.4394 250.574 85.6818C253.665 84.9242 257.665 84.5455 262.574 84.5455ZM225.301 26.5454C229.756 26.5454 233.498 27.0303 236.528 28C239.559 28.9697 241.983 30.4545 243.801 32.4545C245.619 34.4545 246.922 36.9848 247.71 40.0454C248.528 43.1061 248.938 46.7273 248.938 50.9091V65.4545C248.938 70.4242 249.938 73.9697 251.938 76.0909C253.968 78.2121 257.513 79.2727 262.574 79.2727V84.9091C257.665 84.9091 253.665 84.5303 250.574 83.7727C247.513 83.0152 245.15 81.9394 243.483 80.5455C241.816 79.1515 240.665 77.4848 240.028 75.5455C239.422 73.6061 239.119 71.4545 239.119 69.0909V50.9091C239.119 47.3636 238.695 44.4545 237.847 42.1818C237.028 39.8788 235.604 38.1818 233.574 37.0909C231.574 36 228.816 35.4545 225.301 35.4545V26.5454ZM262.574 79.2727V90.1818H251.847V79.2727H262.574ZM58.5629 144.945V143.844C59.5513 143.844 60.2409 143.637 60.6315 143.222C61.028 142.808 61.2263 142.116 61.2263 141.145V138.304C61.2263 137.487 61.3032 136.78 61.4571 136.182C61.6169 135.584 61.8744 135.09 62.2295 134.7C62.5846 134.309 63.0581 134.019 63.6499 133.83C64.2418 133.64 64.9727 133.545 65.8428 133.545V135.286C65.1562 135.286 64.6147 135.392 64.2181 135.605C63.8275 135.818 63.5493 136.15 63.3836 136.599C63.2238 137.043 63.1439 137.612 63.1439 138.304V141.855C63.1439 142.317 63.0818 142.737 62.9575 143.116C62.8391 143.495 62.6172 143.82 62.2916 144.092C61.9661 144.365 61.5015 144.575 60.8978 144.723C60.3 144.871 59.5218 144.945 58.5629 144.945ZM65.8428 156.273C64.9727 156.273 64.2418 156.178 63.6499 155.989C63.0581 155.799 62.5846 155.509 62.2295 155.119C61.8744 154.728 61.6169 154.234 61.4571 153.636C61.3032 153.038 61.2263 152.331 61.2263 151.514V148.673C61.2263 147.703 61.028 147.01 60.6315 146.596C60.2409 146.182 59.5513 145.974 58.5629 145.974V144.874C59.5218 144.874 60.3 144.948 60.8978 145.096C61.5015 145.243 61.9661 145.454 62.2916 145.726C62.6172 145.998 62.8391 146.324 62.9575 146.702C63.0818 147.081 63.1439 147.501 63.1439 147.963V151.514C63.1439 152.207 63.2238 152.775 63.3836 153.219C63.5493 153.663 63.8275 153.991 64.2181 154.204C64.6147 154.423 65.1562 154.533 65.8428 154.533V156.273ZM58.5629 145.974V143.844H60.6581V145.974H58.5629ZM68.899 154V135.818H75.0424C76.4688 135.818 77.6348 136.076 78.5403 136.591C79.4518 137.1 80.1265 137.789 80.5645 138.659C81.0024 139.529 81.2214 140.5 81.2214 141.571C81.2214 142.642 81.0024 143.616 80.5645 144.492C80.1324 145.368 79.4636 146.066 78.5581 146.587C77.6525 147.102 76.4925 147.359 75.0779 147.359H70.6745V145.406H75.0069C75.9835 145.406 76.7677 145.238 77.3596 144.9C77.9514 144.563 78.3805 144.107 78.6468 143.533C78.9191 142.953 79.0552 142.299 79.0552 141.571C79.0552 140.843 78.9191 140.192 78.6468 139.618C78.3805 139.044 77.9484 138.594 77.3507 138.268C76.7529 137.937 75.9598 137.771 74.9714 137.771H71.1007V154H68.899ZM84.484 154V140.364H86.5082V142.423H86.6502C86.8988 141.749 87.3486 141.201 87.9996 140.781C88.6507 140.361 89.3846 140.151 90.2013 140.151C90.3552 140.151 90.5476 140.154 90.7784 140.159C91.0092 140.165 91.1838 140.174 91.3022 140.186V142.317C91.2312 142.299 91.0684 142.272 90.8139 142.237C90.5653 142.195 90.302 142.175 90.0238 142.175C89.3609 142.175 88.7691 142.314 88.2482 142.592C87.7333 142.864 87.3249 143.243 87.0231 143.728C86.7272 144.208 86.5792 144.755 86.5792 145.371V154H84.484ZM98.9105 154.284C97.6795 154.284 96.5993 153.991 95.6701 153.405C94.7468 152.819 94.0247 152 93.5039 150.946C92.989 149.893 92.7315 148.661 92.7315 147.253C92.7315 145.832 92.989 144.592 93.5039 143.533C94.0247 142.474 94.7468 141.651 95.6701 141.065C96.5993 140.479 97.6795 140.186 98.9105 140.186C100.142 140.186 101.219 140.479 102.142 141.065C103.071 141.651 103.793 142.474 104.308 143.533C104.829 144.592 105.089 145.832 105.089 147.253C105.089 148.661 104.829 149.893 104.308 150.946C103.793 152 103.071 152.819 102.142 153.405C101.219 153.991 100.142 154.284 98.9105 154.284ZM98.9105 152.402C99.8456 152.402 100.615 152.162 101.219 151.683C101.822 151.203 102.269 150.573 102.559 149.792C102.849 149.011 102.994 148.164 102.994 147.253C102.994 146.341 102.849 145.492 102.559 144.705C102.269 143.918 101.822 143.281 101.219 142.796C100.615 142.311 99.8456 142.068 98.9105 142.068C97.9754 142.068 97.206 142.311 96.6023 142.796C95.9986 143.281 95.5517 143.918 95.2617 144.705C94.9717 145.492 94.8267 146.341 94.8267 147.253C94.8267 148.164 94.9717 149.011 95.2617 149.792C95.5517 150.573 95.9986 151.203 96.6023 151.683C97.206 152.162 97.9754 152.402 98.9105 152.402ZM113.792 159.398C112.78 159.398 111.91 159.268 111.182 159.007C110.454 158.753 109.847 158.415 109.362 157.995C108.883 157.581 108.501 157.137 108.217 156.663L109.886 155.491C110.075 155.74 110.315 156.024 110.605 156.344C110.895 156.669 111.291 156.95 111.794 157.187C112.303 157.43 112.969 157.551 113.792 157.551C114.893 157.551 115.801 157.285 116.517 156.752C117.234 156.219 117.592 155.385 117.592 154.249V151.479H117.414C117.26 151.727 117.041 152.035 116.757 152.402C116.479 152.763 116.077 153.086 115.55 153.37C115.029 153.648 114.325 153.787 113.437 153.787C112.336 153.787 111.348 153.527 110.472 153.006C109.602 152.485 108.912 151.727 108.403 150.733C107.9 149.739 107.649 148.531 107.649 147.111C107.649 145.714 107.894 144.498 108.385 143.462C108.877 142.42 109.56 141.615 110.436 141.047C111.312 140.473 112.324 140.186 113.472 140.186C114.36 140.186 115.064 140.334 115.585 140.63C116.112 140.92 116.515 141.251 116.793 141.624C117.077 141.991 117.296 142.293 117.45 142.53H117.663V140.364H119.687V154.391C119.687 155.562 119.421 156.515 118.888 157.249C118.361 157.989 117.651 158.531 116.757 158.874C115.869 159.223 114.881 159.398 113.792 159.398ZM113.721 151.905C114.561 151.905 115.272 151.712 115.852 151.328C116.432 150.943 116.873 150.39 117.174 149.668C117.476 148.946 117.627 148.081 117.627 147.075C117.627 146.093 117.479 145.226 117.183 144.474C116.887 143.722 116.449 143.134 115.869 142.707C115.289 142.281 114.573 142.068 113.721 142.068C112.833 142.068 112.093 142.293 111.502 142.743C110.916 143.193 110.475 143.796 110.179 144.554C109.889 145.312 109.744 146.152 109.744 147.075C109.744 148.022 109.892 148.86 110.188 149.588C110.489 150.31 110.933 150.878 111.519 151.292C112.111 151.701 112.845 151.905 113.721 151.905ZM123.522 154V140.364H125.546V142.423H125.688C125.937 141.749 126.387 141.201 127.038 140.781C127.689 140.361 128.423 140.151 129.239 140.151C129.393 140.151 129.586 140.154 129.816 140.159C130.047 140.165 130.222 140.174 130.34 140.186V142.317C130.269 142.299 130.107 142.272 129.852 142.237C129.603 142.195 129.34 142.175 129.062 142.175C128.399 142.175 127.807 142.314 127.286 142.592C126.771 142.864 126.363 143.243 126.061 143.728C125.765 144.208 125.617 144.755 125.617 145.371V154H123.522ZM136.837 154.32C135.973 154.32 135.188 154.157 134.484 153.831C133.78 153.5 133.22 153.023 132.806 152.402C132.392 151.775 132.185 151.017 132.185 150.129C132.185 149.348 132.339 148.715 132.646 148.229C132.954 147.738 133.365 147.353 133.88 147.075C134.395 146.797 134.963 146.59 135.585 146.454C136.212 146.312 136.843 146.199 137.476 146.116C138.304 146.01 138.976 145.93 139.491 145.877C140.012 145.818 140.391 145.72 140.627 145.584C140.87 145.448 140.991 145.211 140.991 144.874V144.803C140.991 143.927 140.752 143.246 140.272 142.761C139.799 142.275 139.08 142.033 138.115 142.033C137.115 142.033 136.331 142.252 135.762 142.69C135.194 143.128 134.795 143.595 134.564 144.092L132.575 143.382C132.93 142.554 133.404 141.908 133.996 141.447C134.594 140.979 135.245 140.654 135.949 140.47C136.659 140.281 137.357 140.186 138.044 140.186C138.482 140.186 138.985 140.239 139.553 140.346C140.127 140.446 140.681 140.657 141.213 140.976C141.752 141.296 142.199 141.778 142.554 142.423C142.909 143.068 143.087 143.933 143.087 145.016V154H140.991V152.153H140.885C140.743 152.449 140.506 152.766 140.175 153.103C139.843 153.441 139.402 153.728 138.852 153.964C138.301 154.201 137.63 154.32 136.837 154.32ZM137.156 152.438C137.985 152.438 138.683 152.275 139.251 151.949C139.826 151.624 140.258 151.203 140.548 150.689C140.844 150.174 140.991 149.632 140.991 149.064V147.146C140.903 147.253 140.707 147.35 140.406 147.439C140.11 147.522 139.766 147.596 139.376 147.661C138.991 147.72 138.615 147.774 138.248 147.821C137.887 147.862 137.594 147.898 137.369 147.928C136.825 147.999 136.316 148.114 135.842 148.274C135.375 148.428 134.996 148.661 134.706 148.975C134.422 149.283 134.28 149.703 134.28 150.236C134.28 150.964 134.549 151.514 135.088 151.887C135.632 152.254 136.322 152.438 137.156 152.438ZM146.911 154V140.364H148.935V142.494H149.112C149.397 141.766 149.855 141.201 150.489 140.799C151.122 140.39 151.882 140.186 152.77 140.186C153.67 140.186 154.418 140.39 155.016 140.799C155.62 141.201 156.09 141.766 156.428 142.494H156.57C156.919 141.79 157.443 141.231 158.141 140.816C158.84 140.396 159.677 140.186 160.654 140.186C161.873 140.186 162.87 140.568 163.646 141.331C164.421 142.089 164.809 143.27 164.809 144.874V154H162.713V144.874C162.713 143.867 162.438 143.148 161.888 142.716C161.337 142.284 160.689 142.068 159.943 142.068C158.985 142.068 158.242 142.358 157.715 142.938C157.188 143.512 156.925 144.24 156.925 145.122V154H154.794V144.661C154.794 143.885 154.543 143.261 154.04 142.787C153.537 142.308 152.889 142.068 152.095 142.068C151.551 142.068 151.042 142.213 150.568 142.503C150.101 142.793 149.722 143.196 149.432 143.711C149.148 144.22 149.006 144.808 149.006 145.477V154H146.911ZM168.639 154V140.364H170.663V142.494H170.841C171.125 141.766 171.584 141.201 172.217 140.799C172.85 140.39 173.611 140.186 174.499 140.186C175.398 140.186 176.147 140.39 176.745 140.799C177.348 141.201 177.819 141.766 178.156 142.494H178.298C178.648 141.79 179.171 141.231 179.87 140.816C180.568 140.396 181.406 140.186 182.382 140.186C183.601 140.186 184.599 140.568 185.374 141.331C186.149 142.089 186.537 143.27 186.537 144.874V154H184.442V144.874C184.442 143.867 184.167 143.148 183.616 142.716C183.066 142.284 182.418 142.068 181.672 142.068C180.713 142.068 179.97 142.358 179.444 142.938C178.917 143.512 178.653 144.24 178.653 145.122V154H176.523V144.661C176.523 143.885 176.271 143.261 175.768 142.787C175.265 142.308 174.617 142.068 173.824 142.068C173.279 142.068 172.77 142.213 172.297 142.503C171.829 142.793 171.451 143.196 171.161 143.711C170.877 144.22 170.734 144.808 170.734 145.477V154H168.639ZM196.085 154.284C194.771 154.284 193.638 153.994 192.685 153.414C191.738 152.828 191.007 152.011 190.492 150.964C189.983 149.91 189.729 148.685 189.729 147.288C189.729 145.892 189.983 144.661 190.492 143.595C191.007 142.524 191.723 141.689 192.641 141.092C193.564 140.488 194.641 140.186 195.872 140.186C196.582 140.186 197.284 140.304 197.976 140.541C198.669 140.778 199.299 141.163 199.867 141.695C200.435 142.222 200.888 142.92 201.225 143.79C201.563 144.661 201.731 145.732 201.731 147.004V147.892H191.22V146.081H199.601C199.601 145.312 199.447 144.625 199.139 144.021C198.837 143.418 198.405 142.941 197.843 142.592C197.287 142.243 196.63 142.068 195.872 142.068C195.038 142.068 194.315 142.275 193.706 142.69C193.102 143.098 192.638 143.631 192.312 144.288C191.987 144.945 191.824 145.649 191.824 146.401V147.608C191.824 148.638 192.001 149.511 192.356 150.227C192.717 150.937 193.218 151.479 193.857 151.852C194.496 152.219 195.239 152.402 196.085 152.402C196.636 152.402 197.133 152.325 197.577 152.171C198.026 152.011 198.414 151.775 198.74 151.461C199.065 151.141 199.317 150.745 199.494 150.271L201.518 150.839C201.305 151.526 200.947 152.13 200.444 152.651C199.941 153.165 199.32 153.568 198.58 153.858C197.84 154.142 197.008 154.284 196.085 154.284ZM204.919 154V140.364H206.943V142.423H207.085C207.333 141.749 207.783 141.201 208.434 140.781C209.085 140.361 209.819 140.151 210.636 140.151C210.79 140.151 210.982 140.154 211.213 140.159C211.444 140.165 211.618 140.174 211.737 140.186V142.317C211.666 142.299 211.503 142.272 211.248 142.237C211 142.195 210.737 142.175 210.458 142.175C209.795 142.175 209.204 142.314 208.683 142.592C208.168 142.864 207.759 143.243 207.458 143.728C207.162 144.208 207.014 144.755 207.014 145.371V154H204.919ZM220.435 146.294V147.395C219.446 147.395 218.754 147.602 218.357 148.016C217.967 148.431 217.771 149.123 217.771 150.094V152.935C217.771 153.751 217.692 154.459 217.532 155.056C217.378 155.654 217.123 156.148 216.768 156.539C216.413 156.93 215.94 157.22 215.348 157.409C214.756 157.598 214.025 157.693 213.155 157.693V155.953C213.842 155.953 214.38 155.844 214.771 155.625C215.167 155.412 215.445 155.083 215.605 154.639C215.771 154.195 215.854 153.627 215.854 152.935V149.384C215.854 148.922 215.913 148.502 216.031 148.123C216.156 147.744 216.381 147.419 216.706 147.146C217.032 146.874 217.493 146.664 218.091 146.516C218.695 146.368 219.476 146.294 220.435 146.294ZM213.155 134.966C214.025 134.966 214.756 135.061 215.348 135.25C215.94 135.439 216.413 135.729 216.768 136.12C217.123 136.511 217.378 137.005 217.532 137.603C217.692 138.2 217.771 138.908 217.771 139.724V142.565C217.771 143.536 217.967 144.228 218.357 144.643C218.754 145.057 219.446 145.264 220.435 145.264V146.365C219.476 146.365 218.695 146.291 218.091 146.143C217.493 145.995 217.032 145.785 216.706 145.513C216.381 145.241 216.156 144.915 216.031 144.536C215.913 144.157 215.854 143.737 215.854 143.276V139.724C215.854 139.032 215.771 138.464 215.605 138.02C215.445 137.57 215.167 137.239 214.771 137.026C214.38 136.812 213.842 136.706 213.155 136.706V134.966ZM220.435 145.264V147.395H218.34V145.264H220.435Z" fill="white"/>
<path d="M69.3352 124V30.9091H100.79C108.093 30.9091 114.063 32.2273 118.699 34.8636C123.366 37.4697 126.82 41 129.062 45.4545C131.305 49.9091 132.426 54.8788 132.426 60.3636C132.426 65.8485 131.305 70.8333 129.062 75.3182C126.85 79.803 123.426 83.3788 118.79 86.0455C114.153 88.6818 108.214 90 100.972 90H78.4261V80H100.608C105.608 80 109.623 79.1364 112.653 77.4091C115.684 75.6818 117.881 73.3485 119.244 70.4091C120.638 67.4394 121.335 64.0909 121.335 60.3636C121.335 56.6364 120.638 53.303 119.244 50.3636C117.881 47.4242 115.669 45.1212 112.608 43.4545C109.547 41.7576 105.487 40.9091 100.426 40.9091H80.608V124H69.3352ZM201.494 54.1818C200.949 49.5758 198.737 46 194.858 43.4545C190.979 40.9091 186.222 39.6364 180.585 39.6364C176.464 39.6364 172.858 40.303 169.767 41.6364C166.706 42.9697 164.313 44.803 162.585 47.1364C160.888 49.4697 160.04 52.1212 160.04 55.0909C160.04 57.5758 160.631 59.7121 161.812 61.5C163.025 63.2576 164.57 64.7273 166.449 65.9091C168.328 67.0606 170.297 68.0151 172.358 68.7727C174.419 69.5 176.312 70.0909 178.04 70.5455L187.494 73.0909C189.919 73.7273 192.616 74.6061 195.585 75.7273C198.585 76.8485 201.449 78.3788 204.176 80.3182C206.934 82.2273 209.206 84.6818 210.994 87.6818C212.782 90.6818 213.676 94.3636 213.676 98.7273C213.676 103.758 212.358 108.303 209.722 112.364C207.116 116.424 203.297 119.652 198.267 122.045C193.267 124.439 187.191 125.636 180.04 125.636C173.373 125.636 167.6 124.561 162.722 122.409C157.873 120.258 154.055 117.258 151.267 113.409C148.509 109.561 146.949 105.091 146.585 100H158.222C158.525 103.515 159.706 106.424 161.767 108.727C163.858 111 166.494 112.697 169.676 113.818C172.888 114.909 176.343 115.455 180.04 115.455C184.343 115.455 188.206 114.758 191.631 113.364C195.055 111.939 197.767 109.97 199.767 107.455C201.767 104.909 202.767 101.939 202.767 98.5455C202.767 95.4545 201.903 92.9394 200.176 91C198.449 89.0606 196.176 87.4848 193.358 86.2727C190.54 85.0606 187.494 84 184.222 83.0909L172.767 79.8182C165.494 77.7273 159.737 74.7424 155.494 70.8636C151.252 66.9848 149.131 61.9091 149.131 55.6364C149.131 50.4242 150.54 45.8788 153.358 42C156.206 38.0909 160.025 35.0606 164.812 32.9091C169.631 30.7273 175.009 29.6364 180.949 29.6364C186.949 29.6364 192.282 30.7121 196.949 32.8636C201.616 34.9848 205.313 37.8939 208.04 41.5909C210.797 45.2879 212.252 49.4848 212.403 54.1818H201.494Z" fill="white"/>
<path d="M69.3352 124V30.9091H100.79C108.093 30.9091 114.063 32.2273 118.699 34.8636C123.366 37.4697 126.82 41 129.062 45.4545C131.305 49.9091 132.426 54.8788 132.426 60.3636C132.426 65.8485 131.305 70.8333 129.062 75.3182C126.85 79.803 123.426 83.3788 118.79 86.0455C114.153 88.6818 108.214 90 100.972 90H78.4261V80H100.608C105.608 80 109.623 79.1364 112.653 77.4091C115.684 75.6818 117.881 73.3485 119.244 70.4091C120.638 67.4394 121.335 64.0909 121.335 60.3636C121.335 56.6364 120.638 53.303 119.244 50.3636C117.881 47.4242 115.669 45.1212 112.608 43.4545C109.547 41.7576 105.487 40.9091 100.426 40.9091H80.608V124H69.3352ZM201.494 54.1818C200.949 49.5758 198.737 46 194.858 43.4545C190.979 40.9091 186.222 39.6364 180.585 39.6364C176.464 39.6364 172.858 40.303 169.767 41.6364C166.706 42.9697 164.313 44.803 162.585 47.1364C160.888 49.4697 160.04 52.1212 160.04 55.0909C160.04 57.5758 160.631 59.7121 161.812 61.5C163.025 63.2576 164.57 64.7273 166.449 65.9091C168.328 67.0606 170.297 68.0151 172.358 68.7727C174.419 69.5 176.312 70.0909 178.04 70.5455L187.494 73.0909C189.919 73.7273 192.616 74.6061 195.585 75.7273C198.585 76.8485 201.449 78.3788 204.176 80.3182C206.934 82.2273 209.206 84.6818 210.994 87.6818C212.782 90.6818 213.676 94.3636 213.676 98.7273C213.676 103.758 212.358 108.303 209.722 112.364C207.116 116.424 203.297 119.652 198.267 122.045C193.267 124.439 187.191 125.636 180.04 125.636C173.373 125.636 167.6 124.561 162.722 122.409C157.873 120.258 154.055 117.258 151.267 113.409C148.509 109.561 146.949 105.091 146.585 100H158.222C158.525 103.515 159.706 106.424 161.767 108.727C163.858 111 166.494 112.697 169.676 113.818C172.888 114.909 176.343 115.455 180.04 115.455C184.343 115.455 188.206 114.758 191.631 113.364C195.055 111.939 197.767 109.97 199.767 107.455C201.767 104.909 202.767 101.939 202.767 98.5455C202.767 95.4545 201.903 92.9394 200.176 91C198.449 89.0606 196.176 87.4848 193.358 86.2727C190.54 85.0606 187.494 84 184.222 83.0909L172.767 79.8182C165.494 77.7273 159.737 74.7424 155.494 70.8636C151.252 66.9848 149.131 61.9091 149.131 55.6364C149.131 50.4242 150.54 45.8788 153.358 42C156.206 38.0909 160.025 35.0606 164.812 32.9091C169.631 30.7273 175.009 29.6364 180.949 29.6364C186.949 29.6364 192.282 30.7121 196.949 32.8636C201.616 34.9848 205.313 37.8939 208.04 41.5909C210.797 45.2879 212.252 49.4848 212.403 54.1818H201.494Z" fill="white" fill-opacity="0.2"/>
</svg>
